<?xml version="1.0" standalone="no"?>
<!DOCTYPE svg PUBLIC "-//W3C//DTD SVG 20010904//EN"
 "http://www.w3.org/TR/2001/REC-SVG-20010904/DTD/svg10.dtd">
<svg version="1.0" xmlns="http://www.w3.org/2000/svg"
 width="260.000000pt" height="260.000000pt" viewBox="0 0 260.000000 260.000000"
 preserveAspectRatio="xMidYMid meet">
<metadata>
Created by potrace 1.11, written by Peter Selinger 2001-2013
</metadata>
<g transform="translate(0.000000,260.000000) scale(0.100000,-0.100000)"
fill="#000000" stroke="none">
<path d="M0 1300 l0 -1300 1300 0 1300 0 0 1300 0 1300 -1300 0 -1300 0 0
-1300z m1685 604 l418 -425 -36 -37 -37 -38 40 -39 40 -39 -37 -38 -37 -38 39
-40 40 -40 -423 -423 -422 -422 -422 422 -423 423 37 37 38 37 -42 43 -42 43
39 40 39 40 -37 38 -37 37 422 422 c233 233 423 423 424 423 1 0 189 -191 419
-426z"/>
<path d="M850 1895 l-405 -405 33 -32 32 -33 375 375 375 375 378 -378 378
-377 34 35 35 36 -406 404 c-223 223 -409 405 -415 405 -5 0 -191 -182 -414
-405z"/>
<path d="M890 1775 l-364 -365 34 -35 34 -35 338 337 338 338 335 -335 334
-334 31 29 31 29 -368 368 c-202 202 -370 368 -373 368 -3 0 -169 -164 -370
-365z"/>
<path d="M937 1652 l-327 -327 328 -328 327 -327 330 330 330 330 -325 325
c-179 179 -327 325 -330 325 -3 0 -152 -147 -333 -328z m63 -192 l0 -100 85 0
85 0 0 100 0 100 55 0 55 0 0 -250 0 -250 -55 0 -55 0 0 100 0 100 -85 0 -85
0 0 -100 0 -100 -55 0 -55 0 0 250 0 250 55 0 55 0 0 -100z m670 50 l0 -50
-60 0 -60 0 0 -200 0 -200 -55 0 -55 0 0 200 0 200 -60 0 -60 0 0 50 0 50 175
0 175 0 0 -50z"/>
<path d="M475 1360 l-29 -30 34 -35 34 -35 33 32 33 32 -32 33 c-18 18 -35 33
-38 33 -3 0 -19 -14 -35 -30z"/>
<path d="M1985 1360 l-29 -30 32 -33 32 -32 30 31 30 30 -33 32 -33 32 -29
-30z"/>
<path d="M562 1277 l-32 -33 364 -369 364 -370 374 372 373 373 -33 32 -32 33
-338 -338 -337 -337 -335 335 -336 335 -32 -33z"/>
<path d="M482 1198 l-32 -34 410 -409 410 -410 410 410 410 410 -35 35 -35 35
-378 -378 -377 -377 -375 375 -376 376 -32 -33z"/>
</g>
</svg>
